<svg xmlns="http://www.w3.org/2000/svg" height="800" width="1200" viewBox="-44.4 -36.025 384.8 216.15"><path d="M0 139.1h2.8c.1.9.4 1.5.8 1.8.4.4 1.1.5 2 .5 1.7 0 2.5-.7 2.5-2 0-.6-.2-1.1-.5-1.4-.3-.3-.9-.5-1.6-.7l-1.5-.2c-2.8-.5-4.2-1.9-4.2-4.3 0-1.4.5-2.6 1.4-3.4 1-.8 2.2-1.3 3.8-1.3 1.5 0 2.7.4 3.6 1.2.9.8 1.4 2 1.5 3.4H7.8c0-.8-.3-1.3-.7-1.6-.4-.3-1-.5-1.7-.5-.8 0-1.3.2-1.7.5-.4.3-.6.8-.6 1.5 0 .5.2 1 .5 1.3.3.3.9.5 1.6.7l1.6.3c2.7.5 4 1.9 4 4.4 0 1.6-.5 2.8-1.5 3.6-1 .8-2.3 1.2-4 1.2-1.7 0-3-.4-3.9-1.2-.8-1-1.3-2.2-1.4-3.8zm24.5-8.2v13h-3v-13h-4v-2.6h10.9v2.6zm12.4 9.9l-.9 3h-3.1l5.5-15.5h2.4l5.5 15.5h-3.1l-.9-3zm2.7-8.4l-1.9 6h3.8zm16.7 5.2v6.3h-2.9v-15.5h5.9c1.5 0 2.7.4 3.6 1.2.9.8 1.4 2 1.4 3.4 0 1-.2 1.9-.7 2.6-.5.7-1.2 1.2-2 1.6L65 144h-3.4l-2.9-6.3h-2.4zm2.8-2.5c.7 0 1.2-.2 1.6-.6.4-.4.6-.9.6-1.6 0-.6-.2-1.1-.6-1.5-.4-.4-.9-.6-1.6-.6h-2.8v4.2h2.8zm16.1-6.8v13H82v2.6h-9.7v-15.5h2.9zm17.4 0v15.6h-2.9v-15.5h2.9zm20.1 15.6h-2.9l-5.7-9.7v9.7H101v-15.5h2.9l5.7 9.7v-9.7h2.9v15.5zm11.2-4.4v4.3H121v-15.5h2.9v7.2l5.4-7.2h3.5l-5 6.2 5.4 9.3h-3.4l-3.8-6.9zM4.4 109.1l-3.9 3.8H35C128 19.5 261.9 2.9 296 .1V0C109.9 10.7 23.9 90.3 4.4 109.1"/><path d="M99.2 112.9h34.1L86.1 78.1c-5.7 3.9-11.6 8.3-17.2 12.7zM36.9 41.5H2.8l40 29.3c5.8-3.9 12.5-8.1 18.7-11.7z"/></svg>